<svg width="50" height="50" viewBox="0 0 50 50" fill="none" xmlns="http://www.w3.org/2000/svg">
<rect width="50" height="50" fill="#F84343"/>
<path d="M7.75 30V18.3636H12.7955C13.6818 18.3636 14.4261 18.483 15.0284 18.7216C15.6345 18.9602 16.0909 19.2973 16.3977 19.733C16.7083 20.1686 16.8636 20.6818 16.8636 21.2727C16.8636 21.7008 16.7689 22.0909 16.5795 22.4432C16.3939 22.7955 16.1326 23.0909 15.7955 23.3295C15.4583 23.5644 15.0644 23.7273 14.6136 23.8182V23.9318C15.1136 23.9508 15.5682 24.0777 15.9773 24.3125C16.3864 24.5436 16.7121 24.8636 16.9545 25.2727C17.197 25.678 17.3182 26.1553 17.3182 26.7045C17.3182 27.3409 17.1515 27.9072 16.8182 28.4034C16.4886 28.8996 16.0189 29.2898 15.4091 29.5739C14.7992 29.858 14.072 30 13.2273 30H7.75ZM10.9091 27.4773H12.3864C12.9167 27.4773 13.3144 27.3788 13.5795 27.1818C13.8447 26.9811 13.9773 26.6856 13.9773 26.2955C13.9773 26.0227 13.9148 25.7917 13.7898 25.6023C13.6648 25.4129 13.4867 25.2689 13.2557 25.1705C13.0284 25.072 12.7538 25.0227 12.4318 25.0227H10.9091V27.4773ZM10.9091 23.0682H12.2045C12.4811 23.0682 12.7254 23.0246 12.9375 22.9375C13.1496 22.8504 13.3144 22.7254 13.4318 22.5625C13.553 22.3958 13.6136 22.1932 13.6136 21.9545C13.6136 21.5947 13.4848 21.3201 13.2273 21.1307C12.9697 20.9375 12.6439 20.8409 12.25 20.8409H10.9091V23.0682ZM21.6193 18.3636V30H18.483V18.3636H21.6193ZM27.4219 30.1591C26.4749 30.1591 25.6643 29.9716 24.9901 29.5966C24.3158 29.2178 23.7988 28.6913 23.4389 28.017C23.0791 27.339 22.8991 26.553 22.8991 25.6591C22.8991 24.7652 23.0791 23.9811 23.4389 23.3068C23.7988 22.6288 24.3158 22.1023 24.9901 21.7273C25.6643 21.3485 26.4749 21.1591 27.4219 21.1591C28.3688 21.1591 29.1795 21.3485 29.8537 21.7273C30.5279 22.1023 31.045 22.6288 31.4048 23.3068C31.7647 23.9811 31.9446 24.7652 31.9446 25.6591C31.9446 26.553 31.7647 27.339 31.4048 28.017C31.045 28.6913 30.5279 29.2178 29.8537 29.5966C29.1795 29.9716 28.3688 30.1591 27.4219 30.1591ZM27.4446 27.8409C27.7098 27.8409 27.9389 27.7519 28.1321 27.5739C28.3253 27.3958 28.4749 27.142 28.581 26.8125C28.687 26.483 28.7401 26.0909 28.7401 25.6364C28.7401 25.178 28.687 24.786 28.581 24.4602C28.4749 24.1307 28.3253 23.8769 28.1321 23.6989C27.9389 23.5208 27.7098 23.4318 27.4446 23.4318C27.1643 23.4318 26.9238 23.5208 26.723 23.6989C26.5223 23.8769 26.3688 24.1307 26.2628 24.4602C26.1567 24.786 26.1037 25.178 26.1037 25.6364C26.1037 26.0909 26.1567 26.483 26.2628 26.8125C26.3688 27.142 26.5223 27.3958 26.723 27.5739C26.9238 27.7519 27.1643 27.8409 27.4446 27.8409ZM37.4219 33.4545C36.5469 33.4545 35.7969 33.3295 35.1719 33.0795C34.5507 32.8333 34.0677 32.4924 33.723 32.0568C33.3821 31.625 33.1908 31.1288 33.1491 30.5682H36.1719C36.2022 30.7538 36.2779 30.9034 36.3991 31.017C36.5204 31.1307 36.6757 31.2121 36.8651 31.2614C37.0582 31.3144 37.2741 31.3409 37.5128 31.3409C37.9181 31.3409 38.2533 31.2424 38.5185 31.0455C38.7874 30.8485 38.9219 30.4924 38.9219 29.9773V28.5H38.831C38.7173 28.7955 38.5431 29.0473 38.3082 29.2557C38.0734 29.4602 37.7912 29.6174 37.4616 29.7273C37.1321 29.8333 36.7704 29.8864 36.3764 29.8864C35.7552 29.8864 35.1832 29.7424 34.6605 29.4545C34.1416 29.1667 33.7249 28.7102 33.4105 28.0852C33.0999 27.4602 32.9446 26.6439 32.9446 25.6364C32.9446 24.5833 33.1075 23.7273 33.4332 23.0682C33.7628 22.4091 34.187 21.9261 34.706 21.6193C35.2287 21.3125 35.7779 21.1591 36.3537 21.1591C36.7855 21.1591 37.1643 21.2348 37.4901 21.3864C37.8158 21.5341 38.0885 21.733 38.3082 21.983C38.5279 22.2292 38.6946 22.5 38.8082 22.7955H38.8764V21.2727H42.0128V29.9773C42.0128 30.7159 41.8215 31.3428 41.4389 31.858C41.0601 32.3769 40.526 32.7727 39.8366 33.0455C39.1473 33.3182 38.3423 33.4545 37.4219 33.4545ZM37.5355 27.6591C37.8234 27.6591 38.0696 27.5795 38.2741 27.4205C38.4825 27.2576 38.6416 27.0265 38.7514 26.7273C38.8651 26.4242 38.9219 26.0606 38.9219 25.6364C38.9219 25.2045 38.8651 24.8352 38.7514 24.5284C38.6416 24.2178 38.4825 23.9811 38.2741 23.8182C38.0696 23.6515 37.8234 23.5682 37.5355 23.5682C37.2476 23.5682 37.0014 23.6515 36.7969 23.8182C36.5961 23.9811 36.4408 24.2178 36.331 24.5284C36.2249 24.8352 36.1719 25.2045 36.1719 25.6364C36.1719 26.0682 36.2249 26.4356 36.331 26.7386C36.4408 27.0379 36.5961 27.267 36.7969 27.4261C37.0014 27.5814 37.2476 27.6591 37.5355 27.6591Z" fill="#FAF9F6"/>
</svg>
