<?xml version="1.0" standalone="no"?>
<!DOCTYPE svg PUBLIC "-//W3C//DTD SVG 20010904//EN"
 "http://www.w3.org/TR/2001/REC-SVG-20010904/DTD/svg10.dtd">
<svg version="1.0" xmlns="http://www.w3.org/2000/svg"
 width="175pt" height="50pt" viewBox="0 0 2000.000000 443.000000"
 preserveAspectRatio="xMidYMid meet">

<g transform="translate(0.000000,443.000000) scale(0.100000,-0.100000)"
fill="#F84343" stroke="none">
<path d="M2458 4373 c57 -2 147 -2 200 0 53 1 7 3 -103 3 -110 0 -154 -2 -97
-3z"/>
<path d="M1928 4303 c7 -3 16 -2 19 1 4 3 -2 6 -13 5 -11 0 -14 -3 -6 -6z"/>
<path d="M1735 4241 c-22 -11 -35 -19 -30 -19 14 -1 93 36 80 37 -5 0 -28 -8
-50 -18z"/>
<path d="M2185 4235 c-66 -12 -149 -30 -185 -39 -88 -23 -282 -87 -277 -92 2
-2 35 7 73 20 100 34 341 93 469 115 61 11 94 19 75 19 -19 0 -89 -10 -155
-23z"/>
<path d="M2665 4245 c103 -17 137 -17 60 1 -33 7 -78 13 -100 12 -29 0 -17 -4
40 -13z"/>
<path d="M1660 4210 c-8 -5 -10 -10 -5 -10 6 0 17 5 25 10 8 5 11 10 5 10 -5
0 -17 -5 -25 -10z"/>
<path d="M1745 4189 c-104 -38 -263 -116 -345 -169 -79 -51 -102 -73 -39 -36
25 14 77 37 115 50 38 13 96 37 129 54 94 47 241 132 230 131 -5 0 -46 -13
-90 -30z"/>
<path d="M3060 4165 c471 -158 893 -474 1155 -865 62 -93 81 -116 45 -55 -164
283 -399 532 -655 698 -157 101 -382 198 -576 247 -125 32 -114 23 31 -25z"/>
<path d="M2457 4183 c18 -2 50 -2 70 0 21 2 7 4 -32 4 -38 0 -55 -2 -38 -4z"/>
<path d="M2308 4173 c12 -2 30 -2 40 0 9 3 -1 5 -23 4 -22 0 -30 -2 -17 -4z"/>
<path d="M2213 4163 c9 -2 25 -2 35 0 9 3 1 5 -18 5 -19 0 -27 -2 -17 -5z"/>
<path d="M2925 4135 c66 -18 165 -49 219 -69 55 -20 101 -34 103 -32 15 15
-361 137 -417 135 -14 0 29 -15 95 -34z"/>
<path d="M1995 4135 c-234 -41 -555 -193 -720 -341 l-40 -35 56 39 c238 170
530 291 833 347 44 8 58 13 36 13 -19 0 -93 -10 -165 -23z"/>
<path d="M2675 4070 c323 -58 589 -151 824 -289 29 -17 50 -27 46 -22 -10 17
-170 110 -267 156 -187 88 -440 157 -624 169 l-89 5 110 -19z"/>
<path d="M1186 4008 c-37 -28 -105 -87 -150 -131 l-81 -79 80 72 c44 40 113
98 153 128 63 47 79 62 70 62 -2 0 -34 -23 -72 -52z"/>
<path d="M1920 4004 c-57 -19 -152 -57 -210 -85 -106 -50 -314 -182 -341 -215
-18 -23 44 12 206 116 152 98 192 118 345 170 69 24 127 45 129 47 13 10 -37
-2 -129 -33z"/>
<path d="M2226 4029 c-207 -27 -559 -158 -666 -248 -14 -12 18 1 70 28 248
129 504 202 775 220 l110 8 -110 0 c-60 0 -141 -3 -179 -8z"/>
<path d="M2294 3969 c-45 -5 -99 -13 -120 -19 l-39 -9 40 4 c22 2 144 8 270
12 169 6 213 9 165 14 -89 9 -218 8 -316 -2z"/>
<path d="M2693 3953 c9 -2 25 -2 35 0 9 3 1 5 -18 5 -19 0 -27 -2 -17 -5z"/>
<path d="M3290 3956 c0 -6 144 -88 220 -125 82 -40 51 -15 -61 49 -85 49 -159
84 -159 76z"/>
<path d="M3680 3947 c0 -3 12 -12 26 -22 15 -9 23 -12 20 -6 -7 11 -46 35 -46
28z"/>
<path d="M2098 3933 c7 -3 16 -2 19 1 4 3 -2 6 -13 5 -11 0 -14 -3 -6 -6z"/>
<path d="M3582 3851 c73 -49 174 -122 223 -161 50 -40 79 -60 65 -45 -39 42
-179 158 -245 202 -56 38 -157 93 -170 93 -3 0 54 -40 127 -89z"/>
<path d="M2368 3903 c12 -2 32 -2 45 0 12 2 2 4 -23 4 -25 0 -35 -2 -22 -4z"/>
<path d="M3740 3906 c0 -2 8 -10 18 -17 15 -13 16 -12 3 4 -13 16 -21 21 -21
13z"/>
<path d="M2230 3890 c-50 -11 1 -11 60 -1 41 8 42 8 10 8 -19 0 -51 -3 -70 -7z"/>
<path d="M1850 3862 c-42 -15 -99 -41 -128 -57 -104 -59 -312 -218 -418 -321
l-109 -104 165 136 c227 188 359 273 560 362 47 20 5 11 -70 -16z"/>
<path d="M2153 3873 c9 -2 23 -2 30 0 6 3 -1 5 -18 5 -16 0 -22 -2 -12 -5z"/>
<path d="M3780 3876 c0 -2 8 -10 18 -17 15 -13 16 -12 3 4 -13 16 -21 21 -21
13z"/>
<path d="M2275 3849 c-114 -14 -267 -52 -379 -95 -53 -20 -95 -38 -93 -40 2
-2 65 16 140 40 75 25 173 52 219 61 215 41 463 37 672 -10 60 -14 111 -23
113 -21 5 5 -150 41 -237 56 -92 15 -341 21 -435 9z"/>
<path d="M3835 3830 c10 -11 20 -20 23 -20 3 0 -3 9 -13 20 -10 11 -20 20 -23
20 -3 0 3 -9 13 -20z"/>
<path d="M3195 3811 c17 -10 89 -53 160 -95 72 -43 182 -113 245 -157 l115
-79 -67 64 c-96 90 -225 175 -356 235 -119 54 -147 63 -97 32z"/>
<path d="M1265 3722 c-44 -38 -89 -80 -100 -92 -11 -13 21 11 70 54 110 96
121 106 115 106 -3 0 -41 -31 -85 -68z"/>
<path d="M3920 3755 c19 -19 36 -35 39 -35 3 0 -10 16 -29 35 -19 19 -36 35
-39 35 -3 0 10 -16 29 -35z"/>
<path d="M2868 3753 c7 -3 16 -2 19 1 4 3 -2 6 -13 5 -11 0 -14 -3 -6 -6z"/>
<path d="M2380 3734 c-208 -25 -399 -78 -550 -154 -86 -43 -244 -142 -256
-161 -3 -5 25 11 63 36 181 123 398 199 653 231 85 10 56 -2 -46 -20 -116 -20
-255 -66 -366 -122 -49 -24 -88 -46 -88 -48 0 -3 42 15 93 39 182 86 369 125
601 125 83 0 178 -4 211 -9 33 -5 78 -12 100 -15 37 -5 36 -5 -9 8 -27 8 -81
21 -120 28 l-71 13 45 7 c25 3 77 7 115 8 l70 2 -65 14 c-66 14 -317 26 -380
18z"/>
<path d="M3000 3710 c246 -99 476 -250 668 -438 86 -84 119 -132 210 -307 40
-77 70 -126 67 -110 -9 50 -81 184 -153 285 -127 179 -315 346 -519 461 -88
49 -261 122 -318 134 -16 3 4 -8 45 -25z"/>
<path d="M1605 3661 c-98 -61 -222 -160 -295 -237 l-55 -58 73 65 c143 125
178 153 267 211 50 33 92 62 94 64 13 13 -14 -2 -84 -45z"/>
<path d="M2848 3693 c7 -3 16 -2 19 1 4 3 -2 6 -13 5 -11 0 -14 -3 -6 -6z"/>
<path d="M1329 3673 c-13 -16 -12 -17 4 -4 9 7 17 15 17 17 0 8 -8 3 -21 -13z"/>
<path d="M1354 3626 c-48 -43 -179 -189 -211 -237 -9 -13 -12 -19 -6 -14 42
43 274 295 271 295 -2 0 -26 -20 -54 -44z"/>
<path d="M3020 3631 c25 -18 77 -53 115 -79 39 -26 75 -52 80 -58 6 -6 33 -23
60 -39 28 -15 71 -43 96 -61 26 -19 51 -34 55 -34 5 0 47 -26 93 -57 68 -47
97 -76 158 -158 176 -235 289 -482 337 -740 9 -44 18 -91 20 -105 3 -14 3 10
0 53 -5 87 -40 235 -80 342 -46 123 -152 328 -206 400 -137 185 -381 386 -593
490 -156 76 -200 91 -135 46z"/>
<path d="M3235 3652 c6 -5 85 -60 178 -121 123 -82 191 -136 260 -204 103
-103 211 -242 281 -362 25 -44 46 -76 46 -71 0 17 -105 194 -158 266 -104 141
-252 280 -412 387 -93 62 -226 134 -195 105z"/>
<path d="M4030 3646 c0 -2 8 -10 18 -17 15 -13 16 -12 3 4 -13 16 -21 21 -21
13z"/>
<path d="M2553 3623 c9 -2 23 -2 30 0 6 3 -1 5 -18 5 -16 0 -22 -2 -12 -5z"/>
<path d="M2848 3623 c7 -3 16 -2 19 1 4 3 -2 6 -13 5 -11 0 -14 -3 -6 -6z"/>
<path d="M1734 3604 c-18 -14 -18 -15 4 -4 12 6 22 13 22 15 0 8 -5 6 -26 -11z"/>
<path d="M2658 3613 c7 -3 16 -2 19 1 4 3 -2 6 -13 5 -11 0 -14 -3 -6 -6z"/>
<path d="M2278 3603 c6 -2 18 -2 25 0 6 3 1 5 -13 5 -14 0 -19 -2 -12 -5z"/>
<path d="M2218 3593 c6 -2 18 -2 25 0 6 3 1 5 -13 5 -14 0 -19 -2 -12 -5z"/>
<path d="M1689 3573 c-13 -16 -12 -17 4 -4 16 13 21 21 13 21 -2 0 -10 -8 -17
-17z"/>
<path d="M3550 3556 c0 -2 8 -10 18 -17 15 -13 16 -12 3 4 -13 16 -21 21 -21
13z"/>
<path d="M3987 3404 c65 -83 128 -164 141 -180 17 -22 16 -19 -4 16 -45 75
-129 185 -194 252 -48 49 -35 30 57 -88z"/>
<path d="M2220 3485 c-120 -13 -159 -24 -250 -71 -81 -40 -122 -70 -289 -209
-149 -124 -214 -207 -301 -389 -48 -100 -110 -279 -110 -316 0 -10 -4 -21 -9
-24 -14 -9 18 143 54 251 35 106 80 202 147 315 73 123 266 287 444 377 82 42
94 52 28 25 -147 -61 -263 -135 -370 -236 -187 -178 -269 -342 -339 -681 -14
-64 -24 -97 -24 -77 -1 31 15 143 33 235 3 17 -7 -9 -23 -56 -76 -227 -74
-470 4 -704 13 -38 17 -61 10 -52 -7 10 -29 66 -48 125 -123 372 -101 575 105
934 116 203 156 258 277 378 97 96 105 107 51 65 -98 -77 -245 -221 -279 -274
-17 -26 -50 -94 -74 -152 -25 -57 -58 -131 -76 -164 -17 -33 -42 -104 -56
-157 -95 -377 -20 -753 210 -1056 79 -105 121 -143 256 -240 88 -62 191 -149
167 -139 -10 3 -66 39 -125 78 -120 81 -269 219 -343 318 -123 167 -205 378
-229 592 l-10 84 4 -90 c14 -269 152 -562 370 -780 178 -178 387 -294 639
-356 105 -26 320 -35 395 -17 50 12 41 13 -135 13 -167 0 -198 3 -269 23 -73
21 -245 95 -245 105 0 3 30 -6 66 -19 36 -14 107 -29 157 -34 132 -14 144 -11
46 10 -173 36 -367 136 -492 253 -55 52 -56 54 -12 19 216 -171 446 -253 709
-252 131 1 126 0 355 54 85 20 156 34 158 32 7 -7 -136 -66 -222 -92 -72 -21
-121 -28 -245 -34 l-155 -7 120 -1 c388 -5 709 144 893 415 105 155 188 374
212 560 30 232 -72 499 -307 803 -24 31 -22 30 21 -10 216 -201 340 -546 308
-852 -20 -188 -122 -421 -249 -572 l-76 -91 62 60 c120 115 216 288 269 483
24 90 26 112 26 307 0 177 -2 216 -17 249 -9 21 -17 41 -17 45 1 15 26 -39 47
-104 20 -58 23 -63 18 -28 -8 66 -53 201 -95 284 -55 113 -114 195 -199 280
-127 126 -244 195 -420 245 -91 26 -100 27 -280 21 -262 -7 -384 -41 -541
-147 -30 -21 -64 -48 -75 -60 -11 -13 5 -4 35 18 243 183 610 232 908 122 201
-75 323 -173 453 -365 41 -60 29 -49 -57 52 -144 169 -396 303 -630 334 -367
49 -748 -159 -908 -494 -49 -102 -66 -175 -73 -305 -3 -62 -8 -111 -10 -108
-2 2 -8 26 -13 53 -8 38 -8 29 -5 -47 9 -197 76 -364 218 -545 34 -44 32 -42
-21 13 -103 110 -183 276 -212 438 -20 113 -8 318 24 428 54 180 157 339 292
450 166 137 441 226 694 226 181 0 314 -42 479 -151 279 -184 482 -515 512
-837 26 -283 -38 -556 -187 -789 -41 -65 -196 -220 -295 -295 -41 -32 -110
-78 -154 -103 -96 -54 -92 -59 8 -9 414 207 644 555 664 1009 14 310 -118 641
-353 885 -140 145 -317 251 -504 301 -156 42 -361 29 -560 -37 -132 -44 -309
-136 -377 -199 -74 -67 -148 -175 -191 -277 -56 -135 -110 -380 -113 -513 l-2
-60 -8 45 c-14 82 -10 241 10 336 59 285 279 532 614 689 137 64 191 76 352
82 144 5 260 -8 356 -42 23 -8 44 -13 46 -11 3 3 -39 19 -94 37 -96 32 -102
33 -273 33 -157 0 -185 -3 -272 -27 -152 -40 -361 -149 -427 -220 -47 -51
-191 -228 -220 -270 -60 -88 -103 -225 -121 -389 -24 -218 41 -504 152 -665
45 -66 143 -162 217 -212 151 -103 307 -156 501 -171 l115 -8 -150 3 c-167 3
-225 17 -345 82 -150 82 -360 279 -421 397 -18 35 -35 63 -37 61 -6 -6 67
-142 113 -211 84 -123 154 -183 302 -258 196 -98 472 -126 664 -67 35 11 65
18 67 16 2 -2 -32 -15 -75 -29 -345 -108 -699 -7 -935 267 -183 213 -279 450
-280 692 -1 262 83 479 270 693 31 35 64 68 75 73 10 6 -7 -19 -38 -56 -78
-93 -117 -157 -160 -261 -76 -188 -106 -374 -86 -539 11 -97 40 -229 48 -222
2 2 -2 28 -9 58 -20 85 -17 366 5 469 54 249 107 353 255 498 348 340 876 418
1317 194 321 -162 542 -444 644 -822 5 -19 10 -27 10 -16 1 24 -23 121 -55
219 -28 84 -120 233 -213 345 -29 35 -51 65 -49 68 5 5 197 -191 221 -226 10
-14 3 4 -14 39 -17 36 -49 90 -72 120 -31 44 -34 50 -13 31 24 -21 85 -98 159
-200 10 -14 2 7 -18 45 -108 205 -304 404 -495 504 -70 36 -238 101 -263 101
-6 0 39 -25 99 -55 60 -30 120 -64 134 -76 18 -14 6 -11 -38 11 -178 87 -373
126 -596 117 -162 -6 -250 -23 -395 -76 -199 -73 -464 -307 -623 -550 -88
-135 -123 -308 -115 -571 3 -96 8 -186 11 -200 5 -21 4 -20 -8 5 -30 63 -49
211 -43 339 25 518 378 924 924 1062 83 21 144 29 263 34 l155 7 -155 0 c-85
0 -202 -5 -260 -12z m570 -99 c52 -15 127 -42 165 -61 39 -20 61 -33 50 -29
-156 45 -206 57 -300 70 -60 8 -184 18 -275 22 l-165 8 65 11 c37 7 129 10
215 8 124 -3 167 -8 245 -29z m-820 -100 c0 -8 -92 -58 -97 -53 -3 3 17 17 44
31 53 28 53 28 53 22z m515 -177 c-132 -10 -279 -47 -382 -94 -93 -43 -103
-44 -38 -3 120 75 241 106 415 106 l115 -1 -110 -8z m730 -444 c113 -159 148
-272 149 -490 0 -170 -17 -258 -81 -413 -62 -146 -197 -329 -306 -413 -49 -38
-39 -24 57 80 147 161 258 351 297 511 40 159 14 412 -61 585 -28 66 -81 157
-87 151 -2 -2 24 -76 60 -163 l65 -158 12 -150 c15 -184 8 -230 -56 -366 -50
-106 -66 -125 -34 -42 60 158 67 444 15 642 -15 57 -38 132 -51 168 -13 35
-22 69 -18 74 3 6 -15 38 -41 72 l-47 62 42 -45 c23 -25 62 -72 85 -105z
m-2004 -451 c11 -63 68 -248 74 -242 2 2 -5 37 -14 78 -10 41 -20 102 -23 135
-6 63 -4 60 30 -87 41 -174 140 -372 253 -508 l62 -75 -53 50 c-60 58 -129
151 -176 239 -39 72 -44 69 -10 -8 70 -159 262 -372 451 -501 52 -36 12 -25
-65 17 -319 175 -506 488 -544 907 -7 78 0 76 15 -5z m2024 -304 c-35 -134
-111 -263 -220 -373 -162 -164 -394 -276 -603 -292 l-67 -5 88 19 c97 22 173
46 102 33 -22 -4 -119 -6 -215 -4 -179 2 -258 16 -330 58 -16 10 -18 13 -5 9
101 -33 185 -48 298 -52 142 -6 239 6 351 42 39 13 72 22 74 20 2 -1 -20 -13
-47 -26 -28 -12 -49 -24 -47 -26 8 -8 158 67 229 114 91 60 207 170 263 248
57 81 111 196 127 270 6 32 13 52 15 43 2 -9 -4 -44 -13 -78z m-549 -485 c-11
-8 -25 -15 -30 -15 -6 1 0 7 14 15 32 19 40 18 16 0z m139 -111 c-83 -60 -186
-105 -266 -115 -67 -8 -101 -6 -68 5 8 2 54 17 102 32 48 15 127 47 175 70
108 52 121 54 57 8z"/>
<path d="M3090 3485 c14 -8 30 -14 35 -14 6 0 -1 6 -15 14 -14 8 -29 14 -35
14 -5 0 1 -6 15 -14z"/>
<path d="M1754 3474 c-18 -14 -18 -15 4 -4 12 6 22 13 22 15 0 8 -5 6 -26 -11z"/>
<path d="M2663 3483 c9 -2 25 -2 35 0 9 3 1 5 -18 5 -19 0 -27 -2 -17 -5z"/>
<path d="M2738 3473 c6 -2 18 -2 25 0 6 3 1 5 -13 5 -14 0 -19 -2 -12 -5z"/>
<path d="M2788 3463 c7 -3 16 -2 19 1 4 3 -2 6 -13 5 -11 0 -14 -3 -6 -6z"/>
<path d="M3140 3466 c0 -2 33 -22 73 -44 39 -22 101 -61 137 -88 36 -26 59
-40 51 -30 -27 32 -261 178 -261 162z"/>
<path d="M2828 3453 c7 -3 16 -2 19 1 4 3 -2 6 -13 5 -11 0 -14 -3 -6 -6z"/>
<path d="M1534 3388 l-19 -23 23 19 c21 18 27 26 19 26 -2 0 -12 -10 -23 -22z"/>
<path d="M1675 3368 c-72 -45 -165 -122 -200 -165 -21 -28 -11 -21 40 26 39
35 99 84 135 109 101 70 112 85 25 30z"/>
<path d="M1229 3333 l-24 -28 28 24 c25 23 32 31 24 31 -2 0 -14 -12 -28 -27z"/>
<path d="M1440 3305 c-24 -25 -42 -45 -39 -45 3 0 25 20 49 45 24 25 42 45 39
45 -3 0 -25 -20 -49 -45z"/>
<path d="M1218 3233 c-46 -49 -96 -108 -111 -133 -23 -41 -61 -149 -54 -156 1
-2 25 34 52 78 27 45 84 130 127 190 43 59 76 108 75 108 -2 0 -42 -39 -89
-87z"/>
<path d="M1384 3298 l-19 -23 23 19 c21 18 27 26 19 26 -2 0 -12 -10 -23 -22z"/>
<path d="M567 3253 c-91 -152 -167 -355 -209 -563 -20 -103 -23 -142 -23 -365
1 -234 3 -258 28 -380 65 -305 209 -636 370 -850 139 -184 369 -387 572 -504
l40 -23 -35 28 c-19 16 -66 58 -105 93 -38 35 -92 80 -120 101 -301 222 -595
698 -681 1100 -72 343 -54 714 53 1053 35 112 112 301 140 344 9 13 13 23 10
23 -3 0 -21 -26 -40 -57z"/>
<path d="M649 3184 c-28 -58 -49 -108 -47 -110 3 -2 27 46 55 106 28 61 49
110 47 110 -3 0 -28 -48 -55 -106z"/>
<path d="M856 3217 c-171 -274 -256 -602 -243 -941 20 -558 294 -1061 753
-1382 188 -132 493 -253 695 -276 182 -21 395 -17 515 10 91 20 252 71 180 57
-227 -45 -329 -56 -496 -56 -215 0 -330 16 -442 64 -46 19 -134 56 -195 82
-128 53 -246 121 -323 186 -29 24 -118 121 -198 214 -80 94 -166 193 -192 220
-105 112 -210 371 -255 630 -65 375 14 819 211 1183 24 45 42 82 40 82 -3 0
-25 -33 -50 -73z"/>
<path d="M3420 3287 c0 -1 35 -36 78 -77 l77 -75 -75 78 c-69 71 -80 82 -80
74z"/>
<path d="M1309 3208 c-154 -193 -291 -477 -325 -670 -20 -112 -15 -318 11
-448 17 -87 73 -275 80 -268 2 2 -5 32 -15 67 -33 104 -61 260 -67 366 -13
247 130 676 307 923 67 93 71 108 9 30z"/>
<path d="M982 3177 c-306 -453 -340 -1037 -90 -1545 49 -99 81 -147 170 -255
139 -167 167 -195 88 -87 -232 316 -356 574 -390 812 -18 124 -8 308 24 428
117 440 157 559 226 671 45 74 27 59 -28 -24z"/>
<path d="M3545 3230 c10 -11 20 -20 23 -20 3 0 -3 9 -13 20 -10 11 -20 20 -23
20 -3 0 3 -9 13 -20z"/>
<path d="M3570 3196 c0 -2 8 -10 18 -17 15 -13 16 -12 3 4 -13 16 -21 21 -21
13z"/>
<path d="M3282 2991 c222 -241 331 -499 348 -821 l8 -155 -3 180 c-2 142 -7
197 -24 263 -31 122 -96 281 -142 348 -45 65 -151 177 -214 227 -30 24 -24 14
27 -42z"/>
<path d="M956 2873 c-37 -94 -79 -261 -90 -358 -3 -27 -3 -45 -1 -40 10 23
135 488 132 491 -1 2 -20 -40 -41 -93z"/>
<path d="M4230 2909 c0 -2 25 -69 55 -149 31 -80 52 -127 49 -105 -7 45 -105
285 -104 254z"/>
<path d="M3819 2805 c45 -106 87 -233 136 -405 27 -100 33 -114 29 -70 -15
149 -52 277 -124 425 -64 133 -90 163 -41 50z"/>
<path d="M13765 2875 c-142 -26 -231 -73 -323 -169 -71 -73 -128 -183 -157
-300 -39 -160 -37 -439 5 -600 61 -239 210 -392 440 -453 97 -26 309 -23 414
6 286 77 437 306 453 687 13 309 -49 524 -193 671 -138 141 -392 204 -639 158z
m266 -155 c179 -34 295 -153 351 -359 31 -112 31 -381 -1 -496 -29 -108 -63
-175 -123 -240 -138 -151 -408 -178 -595 -59 -99 63 -177 204 -203 366 -17
103 -8 362 15 443 37 131 112 239 204 293 92 54 233 74 352 52z"/>
<path d="M6928 2869 c-17 -9 -18 -56 -18 -754 l0 -744 22 -15 c29 -21 117 -21
146 0 22 15 22 15 22 355 l0 339 400 0 400 0 0 -345 0 -345 26 -10 c45 -18
122 -12 144 10 20 20 20 33 20 750 0 717 0 730 -20 750 -15 15 -33 20 -76 20
-101 0 -94 26 -94 -345 l0 -325 -400 0 -400 0 0 319 c0 319 0 320 -22 335 -26
18 -123 21 -150 5z"/>
<path d="M8536 2864 c-14 -14 -16 -96 -16 -754 l0 -739 22 -15 c29 -21 117
-21 146 0 l22 15 0 739 0 739 -22 15 c-30 22 -131 22 -152 0z"/>
<path d="M9148 2869 c-17 -9 -18 -56 -18 -760 l0 -749 26 -10 c41 -16 109 -12
133 8 21 17 21 19 24 617 l2 600 24 -45 c12 -25 192 -300 398 -611 262 -397
381 -569 396 -573 34 -9 113 -7 141 4 l26 10 0 749 c0 855 10 771 -92 771 -96
0 -88 56 -90 -625 l-3 -600 -32 61 c-48 93 -740 1131 -765 1149 -26 17 -142
21 -170 4z"/>
<path d="M10738 2869 c-17 -9 -18 -56 -18 -754 l0 -744 22 -15 c31 -22 120
-21 147 1 21 18 21 25 24 371 l2 354 313 -354 c172 -194 328 -361 345 -370 40
-22 174 -25 202 -4 24 17 49 -13 -340 410 -176 192 -321 353 -323 360 -1 6
124 169 278 361 154 193 280 358 280 367 0 11 -10 20 -26 24 -38 10 -152 -2
-170 -17 -9 -7 -135 -165 -280 -351 -146 -185 -269 -340 -274 -343 -6 -4 -10
120 -10 339 l0 345 -22 15 c-26 18 -123 21 -150 5z"/>
<path d="M11838 2869 c-10 -5 -18 -16 -18 -23 0 -20 510 -1480 521 -1491 5 -5
49 -12 97 -13 74 -3 91 -1 109 15 19 17 83 195 463 1294 44 127 65 200 60 209
-6 9 -33 16 -77 18 -56 3 -72 1 -89 -15 -23 -20 -415 -1141 -435 -1245 -7 -32
-15 -58 -19 -58 -4 0 -12 26 -19 58 -19 98 -412 1225 -434 1245 -22 19 -129
24 -159 6z"/>
<path d="M18598 2869 c-10 -5 -18 -16 -18 -24 0 -8 101 -168 226 -356 124
-188 223 -347 220 -354 -2 -7 -114 -174 -247 -371 -133 -197 -244 -367 -247
-378 -7 -28 24 -46 79 -46 107 0 89 -18 317 321 114 170 210 308 214 309 4 0
95 -132 203 -292 108 -161 205 -302 216 -313 15 -15 36 -20 93 -23 79 -4 116
7 116 36 0 10 -114 189 -254 397 l-254 380 224 332 c123 182 227 339 231 349
4 11 -1 22 -12 30 -21 16 -121 19 -157 5 -14 -5 -89 -106 -202 -272 -98 -145
-182 -268 -187 -273 -4 -4 -89 114 -188 262 -99 149 -189 276 -200 282 -25 13
-150 13 -173 -1z"/>
<path d="M4130 2865 c0 -5 5 -17 10 -25 5 -8 10 -10 10 -5 0 6 -5 17 -10 25
-5 8 -10 11 -10 5z"/>
<path d="M5547 2863 c-4 -3 -7 -35 -7 -69 0 -52 3 -65 19 -74 12 -6 104 -10
230 -10 l211 0 0 -669 0 -670 22 -15 c29 -21 117 -21 146 0 l22 15 0 670 0
669 208 0 c242 0 245 1 246 76 1 92 57 84 -552 84 -296 0 -542 -3 -545 -7z"/>
<path d="M14962 2858 c-9 -9 -12 -190 -12 -755 l0 -743 26 -10 c33 -13 95 -13
128 0 l26 10 0 330 0 330 140 0 c167 0 227 -11 283 -54 61 -47 88 -97 188
-356 50 -129 96 -241 104 -249 28 -28 170 -26 181 4 6 16 -158 440 -221 571
-41 85 -84 138 -140 170 -17 9 -12 15 44 44 145 78 212 221 189 407 -19 165
-116 257 -310 297 -98 20 -606 24 -626 4z m625 -180 c90 -48 128 -121 121
-236 -4 -83 -39 -148 -106 -199 -70 -53 -126 -64 -308 -61 l-159 3 -3 263 -2
263 202 -3 c199 -3 204 -4 255 -30z"/>
<path d="M16126 2854 c-9 -24 -7 -107 4 -124 8 -12 47 -16 235 -18 l225 -3 0
-674 c0 -656 1 -675 19 -685 25 -13 102 -13 135 0 l26 10 0 674 0 675 220 3
c248 3 240 1 240 80 0 86 54 78 -555 78 -486 0 -543 -2 -549 -16z"/>
<path d="M17500 2844 c-7 -17 -9 -286 -8 -750 2 -577 6 -726 16 -736 10 -10
102 -14 417 -16 396 -3 405 -2 425 18 14 14 20 33 20 63 0 80 16 77 -355 79
l-330 3 -3 273 -2 272 299 0 c340 0 321 -5 321 84 0 78 8 76 -326 76 l-294 0
0 250 0 250 314 0 c184 0 326 4 341 10 25 9 26 13 23 77 l-3 68 -423 3 -422 2
-10 -26z"/>
<path d="M3779 2812 c36 -70 90 -242 113 -355 18 -93 22 -145 22 -302 0 -235
-14 -319 -98 -610 -4 -11 10 12 29 50 28 57 34 63 29 35 -3 -19 -19 -73 -34
-120 -15 -47 -27 -86 -25 -88 4 -4 63 140 92 223 26 76 73 298 72 336 0 15
-10 -2 -23 -41 l-23 -65 -5 245 c-6 262 -18 357 -64 501 -27 86 -89 229 -99
229 -3 0 3 -17 14 -38z"/>
<path d="M3720 2790 c0 -3 27 -86 60 -185 73 -217 80 -257 90 -455 l7 -155 1
132 c3 209 -41 417 -127 603 -17 36 -30 63 -31 60z"/>
<path d="M3993 2710 c25 -99 72 -260 75 -252 4 14 -43 190 -63 233 -8 19 -14
27 -12 19z"/>
<path d="M481 2694 c0 -11 3 -14 6 -6 3 7 2 16 -1 19 -3 4 -6 -2 -5 -13z"/>
<path d="M216 2609 c-8 -82 -6 -380 4 -449 4 -34 8 51 9 228 0 155 -1 282 -3
282 -2 0 -6 -28 -10 -61z"/>
<path d="M472 2635 c0 -16 2 -22 5 -12 2 9 2 23 0 30 -3 6 -5 -1 -5 -18z"/>
<path d="M460 2584 c-1 -10 -5 -66 -10 -124 -6 -58 -7 -152 -2 -210 7 -99 7
-93 13 120 3 124 4 227 2 229 -1 2 -3 -4 -3 -15z"/>
<path d="M915 2435 c-6 -27 -9 -111 -9 -185 2 -166 24 -260 112 -472 88 -212
147 -302 273 -423 l63 -60 -53 60 c-121 138 -240 349 -300 530 -48 147 -63
237 -70 425 -6 152 -8 168 -16 125z"/>
<path d="M1053 2405 c0 -22 2 -30 4 -17 2 12 2 30 0 40 -3 9 -5 -1 -4 -23z"/>
<path d="M3732 2420 c0 -14 2 -19 5 -12 2 6 2 18 0 25 -3 6 -5 1 -5 -13z"/>
<path d="M4071 2424 c0 -11 3 -14 6 -6 3 7 2 16 -1 19 -3 4 -6 -2 -5 -13z"/>
<path d="M4135 2351 c3 -52 6 -173 6 -270 2 -163 2 -170 11 -96 10 88 3 344
-12 415 -7 36 -8 26 -5 -49z"/>
<path d="M1571 2384 c0 -11 3 -14 6 -6 3 7 2 16 -1 19 -3 4 -6 -2 -5 -13z"/>
<path d="M3747 2345 c3 -27 9 -106 13 -175 l8 -125 -4 140 c-2 77 -8 156 -14
175 -8 31 -9 29 -3 -15z"/>
<path d="M3682 2350 c0 -19 2 -27 5 -17 2 9 2 25 0 35 -3 9 -5 1 -5 -18z"/>
<path d="M392 2300 c0 -19 2 -27 5 -17 2 9 2 25 0 35 -3 9 -5 1 -5 -18z"/>
<path d="M3491 2294 c0 -11 3 -14 6 -6 3 7 2 16 -1 19 -3 4 -6 -2 -5 -13z"/>
<path d="M3693 2270 c0 -25 2 -35 4 -22 2 12 2 32 0 45 -2 12 -4 2 -4 -23z"/>
<path d="M4037 2126 c-4 -82 -5 -151 -3 -153 6 -6 18 216 14 262 -1 22 -6 -27
-11 -109z"/>
<path d="M4384 2160 c0 -52 1 -74 3 -47 2 26 2 68 0 95 -2 26 -3 4 -3 -48z"/>
<path d="M3501 2214 c0 -11 3 -14 6 -6 3 7 2 16 -1 19 -3 4 -6 -2 -5 -13z"/>
<path d="M585 2140 c4 -41 15 -115 25 -165 18 -90 78 -290 85 -283 2 2 -7 45
-21 96 -13 51 -40 168 -59 260 -30 142 -35 156 -30 92z"/>
<path d="M3688 2085 c-16 -251 -105 -528 -229 -713 -18 -26 -25 -40 -16 -32
27 25 113 176 146 253 70 168 114 381 109 522 l-3 80 -7 -110z"/>
<path d="M526 2118 c17 -147 98 -449 134 -505 10 -16 11 -16 5 2 -4 11 -24 94
-46 185 -54 228 -91 370 -96 370 -2 0 -1 -24 3 -52z"/>
<path d="M402 2130 c0 -14 2 -19 5 -12 2 6 2 18 0 25 -3 6 -5 1 -5 -13z"/>
<path d="M462 2105 c0 -16 2 -22 5 -12 2 9 2 23 0 30 -3 6 -5 -1 -5 -18z"/>
<path d="M862 2090 c0 -14 2 -19 5 -12 2 6 2 18 0 25 -3 6 -5 1 -5 -13z"/>
<path d="M232 2070 c0 -19 2 -27 5 -17 2 9 2 25 0 35 -3 9 -5 1 -5 -18z"/>
<path d="M4093 2055 c0 -22 2 -30 4 -17 2 12 2 30 0 40 -3 9 -5 -1 -4 -23z"/>
<path d="M4191 1916 c-20 -148 -56 -331 -76 -391 -6 -17 -5 -18 4 -3 18 27 78
257 91 348 6 47 10 114 8 150 -3 60 -5 51 -27 -104z"/>
<path d="M3502 2045 c0 -16 2 -22 5 -12 2 9 2 23 0 30 -3 6 -5 -1 -5 -18z"/>
<path d="M872 2030 c0 -14 2 -19 5 -12 2 6 2 18 0 25 -3 6 -5 1 -5 -13z"/>
<path d="M242 2010 c0 -14 2 -19 5 -12 2 6 2 18 0 25 -3 6 -5 1 -5 -13z"/>
<path d="M885 1966 c8 -49 57 -192 79 -231 18 -32 15 -20 -16 59 -10 27 -30
85 -44 130 -13 44 -22 64 -19 42z"/>
<path d="M3490 1974 c0 -39 -41 -176 -79 -264 -132 -306 -413 -557 -750 -669
-140 -47 -254 -64 -426 -65 -101 0 -134 -2 -100 -7 85 -12 276 -10 366 5 175
28 370 99 478 173 76 53 252 223 311 302 65 86 122 196 159 307 32 94 57 221
47 231 -3 4 -6 -3 -6 -13z"/>
<path d="M3862 1965 c0 -16 2 -22 5 -12 2 9 2 23 0 30 -3 6 -5 -1 -5 -18z"/>
<path d="M4082 1955 c0 -16 2 -22 5 -12 2 9 2 23 0 30 -3 6 -5 -1 -5 -18z"/>
<path d="M3621 1954 c0 -11 3 -14 6 -6 3 7 2 16 -1 19 -3 4 -6 -2 -5 -13z"/>
<path d="M4072 1885 c0 -16 2 -22 5 -12 2 9 2 23 0 30 -3 6 -5 -1 -5 -18z"/>
<path d="M3731 1834 c0 -11 3 -14 6 -6 3 7 2 16 -1 19 -3 4 -6 -2 -5 -13z"/>
<path d="M4062 1830 c0 -14 2 -19 5 -12 2 6 2 18 0 25 -3 6 -5 1 -5 -13z"/>
<path d="M1081 1805 c0 -5 6 -21 14 -35 8 -14 14 -20 14 -15 0 6 -6 21 -14 35
-8 14 -14 21 -14 15z"/>
<path d="M3711 1773 c-8 -21 -22 -49 -31 -63 -10 -14 -59 -103 -108 -198 -107
-203 -136 -244 -237 -341 -166 -158 -377 -284 -585 -351 -110 -36 -341 -79
-485 -90 -90 -8 -84 -8 55 -5 85 2 193 10 240 19 472 85 864 367 1064 764 39
78 110 276 104 293 -2 6 -10 -7 -17 -28z"/>
<path d="M4037 1728 c-10 -39 -16 -73 -13 -75 2 -2 11 28 21 67 10 39 15 73
13 75 -2 3 -12 -27 -21 -67z"/>
<path d="M3991 1764 c0 -11 3 -14 6 -6 3 7 2 16 -1 19 -3 4 -6 -2 -5 -13z"/>
<path d="M3971 1699 c-7 -22 -34 -94 -60 -160 -26 -65 -46 -119 -45 -119 11 0
87 171 105 235 21 79 22 116 0 44z"/>
<path d="M1155 1656 c104 -199 295 -395 506 -520 82 -49 280 -136 309 -136 8
0 -28 18 -80 39 -162 66 -261 128 -406 252 -123 107 -227 222 -292 324 -72
111 -76 116 -37 41z"/>
<path d="M980 1691 c0 -6 4 -13 10 -16 6 -3 7 1 4 9 -7 18 -14 21 -14 7z"/>
<path d="M3536 1662 c-10 -20 -46 -84 -80 -142 -35 -58 -75 -126 -90 -152 -32
-57 -157 -187 -241 -250 -147 -111 -339 -197 -535 -239 -89 -20 -134 -23 -295
-23 -210 0 -316 17 -477 73 -45 17 -84 28 -86 26 -7 -6 165 -68 253 -90 138
-35 272 -49 409 -42 474 25 885 287 1090 695 41 82 79 173 73 178 -2 2 -11
-13 -21 -34z"/>
<path d="M4011 1624 c0 -11 3 -14 6 -6 3 7 2 16 -1 19 -3 4 -6 -2 -5 -13z"/>
<path d="M400 1465 c0 -5 5 -17 10 -25 5 -8 10 -10 10 -5 0 6 -5 17 -10 25 -5
8 -10 11 -10 5z"/>
<path d="M791 1455 c-2 -29 134 -221 195 -275 15 -14 7 0 -18 30 -38 46 -81
107 -165 237 -6 10 -12 14 -12 8z"/>
<path d="M701 1395 c91 -171 242 -358 403 -497 l71 -62 -51 55 c-119 127 -352
405 -391 467 -61 96 -68 105 -32 37z"/>
<path d="M3994 1283 c-42 -76 -97 -169 -121 -206 -61 -95 -38 -76 30 25 79
118 187 318 172 318 -2 0 -38 -62 -81 -137z"/>
<path d="M430 1395 c0 -16 113 -216 168 -297 201 -296 507 -557 829 -710 141
-66 143 -60 3 10 -346 172 -640 437 -860 772 -34 52 -75 120 -91 150 -34 66
-49 88 -49 75z"/>
<path d="M4180 1394 c0 -17 -142 -269 -205 -364 -110 -165 -182 -239 -404
-417 -113 -90 -233 -183 -266 -205 -80 -54 -45 -41 71 28 275 161 517 400 671
661 59 101 147 292 138 301 -3 3 -5 1 -5 -4z"/>
<path d="M4091 1302 c-126 -256 -343 -511 -592 -697 -183 -137 -335 -218 -534
-286 -60 -21 -105 -38 -98 -38 20 -1 190 58 287 100 367 159 681 438 874 776
51 89 115 223 109 229 -1 2 -22 -36 -46 -84z"/>
<path d="M1130 1376 c0 -2 8 -10 18 -17 15 -13 16 -12 3 4 -13 16 -21 21 -21
13z"/>
<path d="M1205 1286 c155 -183 388 -345 590 -409 120 -38 175 -43 70 -7 -231
80 -417 195 -594 364 -84 81 -102 95 -66 52z"/>
<path d="M3404 1298 l-19 -23 23 19 c12 11 22 21 22 23 0 8 -8 2 -26 -19z"/>
<path d="M3310 1195 c-41 -41 -72 -75 -69 -75 2 0 38 34 79 75 41 41 72 75 69
75 -2 0 -38 -34 -79 -75z"/>
<path d="M3562 1228 c-38 -53 -135 -155 -222 -233 -73 -66 -66 -63 34 15 69
54 175 170 209 229 26 44 16 38 -21 -11z"/>
<path d="M3535 1133 c-144 -154 -339 -298 -565 -416 -130 -69 -186 -91 -320
-127 -114 -31 -114 -39 1 -15 40 9 74 14 76 12 3 -4 -247 -72 -297 -81 -14 -3
7 -3 45 0 261 17 535 109 760 255 77 50 231 176 285 235 19 20 -7 0 -58 -44
-180 -157 -374 -270 -543 -316 -124 -33 -134 -32 -37 4 272 101 554 309 696
514 29 42 51 76 50 75 -2 0 -43 -44 -93 -96z"/>
<path d="M746 1198 c4 -7 39 -56 78 -108 76 -104 204 -235 282 -290 37 -26 20
-6 -66 80 -64 63 -155 163 -204 223 -81 98 -109 127 -90 95z"/>
<path d="M1210 1107 c0 -2 15 -16 33 -33 l32 -29 -29 33 c-28 30 -36 37 -36
29z"/>
<path d="M3199 1093 c-13 -16 -12 -17 4 -4 16 13 21 21 13 21 -2 0 -10 -8 -17
-17z"/>
<path d="M3320 1075 c-18 -22 -196 -138 -290 -188 -114 -61 -264 -120 -388
-152 -90 -22 -129 -26 -344 -31 -272 -7 -340 -1 -483 47 -113 38 -272 113
-364 173 -39 25 -71 43 -71 41 0 -11 143 -97 240 -145 57 -27 166 -71 244 -97
l141 -48 250 0 c400 1 547 38 817 205 118 74 291 210 266 210 -3 0 -11 -7 -18
-15z"/>
<path d="M1725 1050 c9 -15 211 -93 299 -115 50 -13 127 -25 171 -29 69 -5 74
-4 35 5 -185 42 -301 73 -397 107 -62 22 -111 36 -108 32z"/>
<path d="M3599 1033 l-24 -28 28 24 c25 23 32 31 24 31 -2 0 -14 -12 -28 -27z"/>
<path d="M1397 1028 c30 -33 203 -144 275 -177 72 -32 250 -91 271 -90 6 0
-11 8 -38 18 -58 21 -118 50 -195 96 -111 65 -332 173 -313 153z"/>
<path d="M1305 1020 c10 -11 20 -20 23 -20 3 0 -3 9 -13 20 -10 11 -20 20 -23
20 -3 0 3 -9 13 -20z"/>
<path d="M668 945 c89 -120 146 -179 264 -275 99 -81 239 -179 298 -210 40
-20 11 3 -73 59 -167 112 -341 268 -501 451 -43 50 -42 48 12 -25z"/>
<path d="M1340 996 c0 -2 8 -10 18 -17 15 -13 16 -12 3 4 -13 16 -21 21 -21
13z"/>
<path d="M1998 993 c7 -3 16 -2 19 1 4 3 -2 6 -13 5 -11 0 -14 -3 -6 -6z"/>
<path d="M3809 983 c-13 -16 -12 -17 4 -4 16 13 21 21 13 21 -2 0 -10 -8 -17
-17z"/>
<path d="M2048 983 c6 -2 18 -2 25 0 6 3 1 5 -13 5 -14 0 -19 -2 -12 -5z"/>
<path d="M3515 938 l-50 -53 53 50 c28 27 52 51 52 52 0 8 -9 -1 -55 -49z"/>
<path d="M825 910 c38 -38 72 -70 74 -70 3 0 -26 32 -64 70 -38 39 -72 70 -74
70 -3 0 26 -31 64 -70z"/>
<path d="M2980 965 c-14 -8 -20 -14 -15 -14 6 0 21 6 35 14 14 8 21 14 15 14
-5 0 -21 -6 -35 -14z"/>
<path d="M620 890 c61 -76 224 -235 301 -294 35 -27 57 -43 49 -34 -243 238
-385 371 -350 328z"/>
<path d="M1230 936 c0 -2 8 -10 18 -17 15 -13 16 -12 3 4 -13 16 -21 21 -21
13z"/>
<path d="M2458 913 c6 -2 18 -2 25 0 6 3 1 5 -13 5 -14 0 -19 -2 -12 -5z"/>
<path d="M2343 903 c15 -2 39 -2 55 0 15 2 2 4 -28 4 -30 0 -43 -2 -27 -4z"/>
<path d="M3434 868 l-19 -23 23 19 c21 18 27 26 19 26 -2 0 -12 -10 -23 -22z"/>
<path d="M3604 848 l-19 -23 23 19 c21 18 27 26 19 26 -2 0 -12 -10 -23 -22z"/>
<path d="M3669 824 c-37 -39 -209 -169 -309 -233 -89 -58 -87 -60 10 -11 56
28 118 71 180 125 94 82 169 155 159 155 -3 0 -21 -16 -40 -36z"/>
<path d="M1195 820 c10 -11 20 -20 23 -20 3 0 -3 9 -13 20 -10 11 -20 20 -23
20 -3 0 3 -9 13 -20z"/>
<path d="M1968 833 c7 -3 16 -2 19 1 4 3 -2 6 -13 5 -11 0 -14 -3 -6 -6z"/>
<path d="M3549 804 c-43 -52 -235 -182 -384 -261 -55 -29 -95 -53 -89 -53 30
0 242 119 334 189 95 71 173 141 158 141 -3 0 -12 -7 -19 -16z"/>
<path d="M1365 775 c63 -52 293 -168 420 -212 78 -27 195 -53 228 -52 12 0 -7
7 -42 14 -155 34 -410 139 -581 240 -25 15 -36 19 -25 10z"/>
<path d="M3820 667 c-90 -87 -108 -108 -64 -74 49 38 205 198 192 197 -2 -1
-59 -56 -128 -123z"/>
<path d="M1968 753 c7 -3 16 -2 19 1 4 3 -2 6 -13 5 -11 0 -14 -3 -6 -6z"/>
<path d="M1275 695 c11 -9 29 -21 40 -26 l20 -10 -20 16 c-11 9 -29 21 -40 26
l-20 10 20 -16z"/>
<path d="M3275 672 c-22 -14 -87 -50 -145 -79 -58 -29 -100 -53 -95 -53 19 0
229 108 260 134 39 33 31 32 -20 -2z"/>
<path d="M1340 656 c0 -3 9 -10 20 -16 11 -6 20 -8 20 -6 0 3 -9 10 -20 16
-11 6 -20 8 -20 6z"/>
<path d="M1978 583 c7 -3 16 -2 19 1 4 3 -2 6 -13 5 -11 0 -14 -3 -6 -6z"/>
<path d="M2028 573 c6 -2 18 -2 25 0 6 3 1 5 -13 5 -14 0 -19 -2 -12 -5z"/>
<path d="M2088 563 c6 -2 18 -2 25 0 6 3 1 5 -13 5 -14 0 -19 -2 -12 -5z"/>
<path d="M2488 553 c6 -2 18 -2 25 0 6 3 1 5 -13 5 -14 0 -19 -2 -12 -5z"/>
<path d="M1550 540 c8 -5 20 -10 25 -10 6 0 3 5 -5 10 -8 5 -19 10 -25 10 -5
0 -3 -5 5 -10z"/>
<path d="M3659 523 c-13 -16 -12 -17 4 -4 16 13 21 21 13 21 -2 0 -10 -8 -17
-17z"/>
<path d="M1650 504 c44 -20 240 -71 300 -77 25 -2 36 -2 25 0 -32 8 -318 81
-340 87 -11 4 -4 -1 15 -10z"/>
<path d="M2053 503 c9 -2 23 -2 30 0 6 3 -1 5 -18 5 -16 0 -22 -2 -12 -5z"/>
<path d="M3570 460 c-201 -148 -518 -289 -800 -354 -58 -14 -96 -25 -85 -25
32 -1 221 44 328 79 147 47 292 110 384 168 81 50 243 168 243 177 0 7 0 7
-70 -45z"/>
<path d="M1524 479 c63 -34 264 -96 380 -118 143 -28 163 -26 46 5 -52 14
-174 49 -271 79 -97 30 -180 55 -185 55 -5 -1 9 -10 30 -21z"/>
<path d="M1838 493 c7 -3 16 -2 19 1 4 3 -2 6 -13 5 -11 0 -14 -3 -6 -6z"/>
<path d="M2203 493 c32 -2 81 -2 110 0 29 2 3 3 -58 3 -60 0 -84 -1 -52 -3z"/>
<path d="M1888 483 c7 -3 16 -2 19 1 4 3 -2 6 -13 5 -11 0 -14 -3 -6 -6z"/>
<path d="M1938 473 c7 -3 16 -2 19 1 4 3 -2 6 -13 5 -11 0 -14 -3 -6 -6z"/>
<path d="M1260 446 c0 -3 14 -12 30 -21 17 -9 30 -13 30 -11 0 3 -13 12 -30
21 -16 9 -30 13 -30 11z"/>
<path d="M2018 413 c6 -2 18 -2 25 0 6 3 1 5 -13 5 -14 0 -19 -2 -12 -5z"/>
<path d="M1605 382 c105 -50 288 -102 355 -101 14 0 -24 11 -85 23 -60 13
-153 40 -205 61 -123 48 -139 52 -65 17z"/>
<path d="M2113 403 c9 -2 25 -2 35 0 9 3 1 5 -18 5 -19 0 -27 -2 -17 -5z"/>
<path d="M1560 330 c8 -5 20 -10 25 -10 6 0 3 5 -5 10 -8 5 -19 10 -25 10 -5
0 -3 -5 5 -10z"/>
<path d="M2068 333 c7 -3 16 -2 19 1 4 3 -2 6 -13 5 -11 0 -14 -3 -6 -6z"/>
<path d="M2728 313 c6 -2 18 -2 25 0 6 3 1 5 -13 5 -14 0 -19 -2 -12 -5z"/>
<path d="M2575 294 c-55 -7 -165 -17 -245 -22 l-145 -9 142 -1 c102 -2 174 4
259 18 65 11 120 22 122 25 7 6 -13 5 -133 -11z"/>
<path d="M3338 251 c-59 -21 -126 -50 -150 -64 -54 -32 -115 -83 -108 -91 11
-10 370 174 370 190 0 5 10 8 -112 -35z"/>
<path d="M2805 270 c-13 -5 -14 -9 -5 -9 8 0 24 4 35 9 13 5 14 9 5 9 -8 0
-24 -4 -35 -9z"/>
<path d="M1470 260 c8 -5 20 -10 25 -10 6 0 3 5 -5 10 -8 5 -19 10 -25 10 -5
0 -3 -5 5 -10z"/>
<path d="M2758 253 c7 -3 16 -2 19 1 4 3 -2 6 -13 5 -11 0 -14 -3 -6 -6z"/>
<path d="M1520 242 c8 -5 26 -13 40 -16 17 -5 20 -4 10 2 -8 5 -26 13 -40 16
-17 5 -20 4 -10 -2z"/>
<path d="M2718 243 c7 -3 16 -2 19 1 4 3 -2 6 -13 5 -11 0 -14 -3 -6 -6z"/>
<path d="M1600 212 c44 -28 306 -88 410 -95 36 -3 54 -3 40 0 -180 30 -260 47
-335 68 -127 36 -133 38 -115 27z"/>
<path d="M2198 153 c12 -2 30 -2 40 0 9 3 -1 5 -23 4 -22 0 -30 -2 -17 -4z"/>
<path d="M2473 153 c9 -2 23 -2 30 0 6 3 -1 5 -18 5 -16 0 -22 -2 -12 -5z"/>
<path d="M2118 103 c18 -2 45 -2 60 0 15 2 0 4 -33 4 -33 0 -45 -2 -27 -4z"/>
<path d="M2458 103 c7 -3 16 -2 19 1 4 3 -2 6 -13 5 -11 0 -14 -3 -6 -6z"/>
<path d="M2628 73 c6 -2 18 -2 25 0 6 3 1 5 -13 5 -14 0 -19 -2 -12 -5z"/>
<path d="M2558 63 c6 -2 18 -2 25 0 6 3 1 5 -13 5 -14 0 -19 -2 -12 -5z"/>
<path d="M2458 53 c6 -2 18 -2 25 0 6 3 1 5 -13 5 -14 0 -19 -2 -12 -5z"/>
</g>
</svg>
